<svg xmlns="http://www.w3.org/2000/svg" width="1000" height="1000" viewBox="0 0 1000 1000">
<path d="M 564,933 L 572,933 Z" fill="black"/>
<path d="M 193,932 L 196,932 Z" fill="black"/>
<path d="M 819,918 L 818,919 L 818,920 L 817,921 L 817,923 L 816,924 L 815,924 L 811,928 L 809,928 L 807,930 L 806,930 L 805,931 L 804,931 L 802,933 L 800,933 L 800,934 L 799,935 L 795,935 L 794,936 L 788,936 L 787,937 L 772,937 L 771,936 L 770,937 L 752,937 L 751,936 L 614,936 L 613,935 L 426,935 L 425,934 L 424,935 L 414,935 L 413,934 L 412,935 L 408,935 L 407,934 L 240,934 L 239,933 L 216,933 L 215,934 L 210,934 L 209,933 L 199,933 L 198,932 L 200,934 L 202,934 L 203,935 L 207,935 L 208,936 L 243,936 L 244,935 L 251,935 L 252,936 L 255,936 L 256,935 L 282,935 L 283,936 L 289,936 L 290,935 L 303,935 L 304,936 L 399,936 L 400,937 L 404,937 L 405,936 L 407,936 L 408,937 L 651,937 L 652,938 L 655,938 L 656,937 L 669,937 L 670,938 L 794,938 L 795,937 L 799,937 L 801,935 L 804,935 L 807,932 L 808,932 L 810,930 L 812,930 L 814,928 L 815,928 L 816,927 L 816,925 L 819,922 L 819,920 L 820,919 L 820,918 Z" fill="black"/>
<path d="M 803,915 Z" fill="black"/>
<path d="M 796,912 L 796,913 L 797,913 L 797,912 Z" fill="black"/>
<path d="M 288,911 L 289,912 L 289,911 Z" fill="black"/>
<path d="M 297,910 L 295,912 L 293,912 L 293,913 L 297,913 L 298,912 L 301,912 L 301,911 L 300,910 Z" fill="black"/>
<path d="M 254,909 L 253,910 L 258,910 L 259,911 L 261,911 L 259,909 Z" fill="black"/>
<path d="M 247,909 L 247,910 L 248,910 L 249,911 L 250,910 L 249,909 Z" fill="black"/>
<path d="M 230,909 L 230,911 L 229,912 L 227,912 L 227,915 L 229,915 L 229,912 L 230,911 L 232,911 L 232,909 Z" fill="black"/>
<path d="M 270,908 Z" fill="black"/>
<path d="M 239,908 L 238,909 L 235,909 L 236,910 L 238,910 L 239,911 L 240,911 L 241,910 L 241,908 Z" fill="black"/>
<path d="M 310,904 Z" fill="black"/>
<path d="M 796,902 L 796,903 L 795,904 L 795,907 L 797,907 L 797,902 Z" fill="black"/>
<path d="M 188,900 L 188,902 L 187,903 L 187,913 L 193,913 L 194,912 L 195,912 L 191,912 L 189,910 L 191,908 L 192,908 L 193,907 L 195,907 L 199,903 L 199,902 L 198,902 L 196,900 Z" fill="black"/>
<path d="M 777,898 L 776,899 L 777,899 L 778,900 L 778,898 Z" fill="black"/>
<path d="M 762,897 L 763,897 Z" fill="black"/>
<path d="M 228,897 L 231,897 Z" fill="black"/>
<path d="M 206,897 L 206,899 L 207,900 L 207,897 Z" fill="black"/>
<path d="M 795,896 Z" fill="black"/>
<path d="M 792,895 Z" fill="black"/>
<path d="M 248,895 L 250,895 Z" fill="black"/>
<path d="M 240,895 L 245,895 Z" fill="black"/>
<path d="M 776,894 L 775,895 L 777,895 Z" fill="black"/>
<path d="M 762,894 L 762,895 L 763,895 L 763,894 Z" fill="black"/>
<path d="M 736,892 L 736,893 L 739,893 L 738,893 L 737,892 Z" fill="black"/>
<path d="M 751,891 L 750,892 L 748,892 L 751,892 L 752,891 L 753,891 Z" fill="black"/>
<path d="M 743,891 Z" fill="black"/>
<path d="M 493,891 L 523,891 Z" fill="black"/>
<path d="M 483,891 L 488,891 Z" fill="black"/>
<path d="M 459,891 L 463,891 Z" fill="black"/>
<path d="M 449,891 L 455,891 Z" fill="black"/>
<path d="M 403,891 L 411,891 Z" fill="black"/>
<path d="M 692,890 L 695,890 L 696,891 L 697,891 L 698,890 L 701,890 Z" fill="black"/>
<path d="M 270,890 L 270,891 L 274,891 L 275,892 L 276,891 L 285,891 L 273,891 L 272,890 Z" fill="black"/>
<path d="M 673,888 L 677,888 Z" fill="black"/>
<path d="M 773,887 L 774,887 Z" fill="black"/>
<path d="M 763,887 L 764,887 Z" fill="black"/>
<path d="M 393,887 Z" fill="black"/>
<path d="M 387,887 L 390,887 Z" fill="black"/>
<path d="M 381,887 L 383,887 Z" fill="black"/>
<path d="M 343,887 L 349,887 Z" fill="black"/>
<path d="M 339,887 L 340,887 Z" fill="black"/>
<path d="M 333,887 L 334,887 Z" fill="black"/>
<path d="M 297,887 Z" fill="black"/>
<path d="M 308,886 L 310,886 Z" fill="black"/>
<path d="M 232,886 Z" fill="black"/>
<path d="M 771,885 L 772,885 Z" fill="black"/>
<path d="M 245,885 L 246,885 Z" fill="black"/>
<path d="M 781,882 L 779,884 L 778,884 L 776,886 L 777,886 L 778,885 L 779,885 L 781,883 L 782,883 L 783,884 L 783,886 L 780,889 L 777,889 L 776,890 L 775,890 L 774,891 L 777,891 L 778,890 L 780,890 L 781,889 L 783,889 L 784,890 L 784,891 L 783,892 L 780,892 L 780,893 L 783,893 L 784,892 L 785,893 L 785,895 L 784,896 L 783,896 L 782,897 L 784,897 L 784,896 L 785,895 L 787,895 L 788,896 L 788,900 L 791,903 L 791,904 L 788,907 L 787,906 L 787,904 L 787,910 L 786,911 L 784,909 L 784,908 L 783,907 L 783,903 L 782,903 L 782,904 L 781,905 L 781,908 L 780,909 L 777,909 L 776,910 L 775,910 L 775,913 L 773,915 L 774,916 L 779,916 L 780,917 L 784,917 L 785,918 L 786,917 L 791,917 L 791,916 L 792,915 L 792,914 L 794,912 L 794,910 L 792,908 L 792,899 L 791,898 L 791,897 L 789,895 L 789,893 L 787,891 L 787,890 L 786,890 L 785,889 L 785,888 L 784,887 L 784,886 L 783,885 L 783,884 L 782,883 L 782,882 Z" fill="black"/>
<path d="M 779,880 Z" fill="black"/>
<path d="M 208,878 L 208,879 L 209,879 L 209,878 Z" fill="black"/>
<path d="M 211,874 L 211,875 Z" fill="black"/>
<path d="M 208,874 Z" fill="black"/>
<path d="M 190,869 L 190,870 L 189,871 L 189,878 L 188,879 L 188,880 L 187,881 L 187,882 L 188,883 L 188,885 L 189,886 L 189,887 L 192,887 L 194,885 L 195,885 L 196,884 L 197,884 L 197,877 L 196,876 L 196,875 L 195,875 L 194,876 L 193,875 L 192,875 L 191,874 L 191,870 Z" fill="black"/>
<path d="M 792,866 L 792,868 L 791,869 L 790,869 L 789,868 L 789,869 L 788,870 L 788,873 L 787,874 L 787,876 L 786,877 L 787,877 L 787,876 L 788,875 L 789,876 L 789,877 L 791,879 L 791,877 L 793,875 L 794,876 L 794,881 L 795,882 L 795,885 L 796,885 L 798,883 L 799,883 L 801,885 L 801,884 L 802,883 L 802,882 L 803,881 L 803,878 L 802,877 L 802,875 L 801,874 L 801,873 L 800,872 L 800,866 L 798,866 L 798,873 L 799,873 L 800,874 L 800,875 L 799,876 L 799,878 L 798,879 L 797,879 L 796,878 L 796,876 L 795,875 L 795,872 L 794,871 L 794,870 L 793,869 L 793,867 Z" fill="black"/>
<path d="M 208,866 Z" fill="black"/>
<path d="M 799,863 L 800,864 L 800,863 Z" fill="black"/>
<path d="M 196,862 L 196,863 L 197,862 Z" fill="black"/>
<path d="M 193,860 L 192,861 L 190,861 L 189,862 L 191,862 L 192,863 L 193,863 Z" fill="black"/>
<path d="M 197,851 L 197,854 Z" fill="black"/>
<path d="M 798,842 L 798,845 L 799,845 L 799,843 Z" fill="black"/>
<path d="M 788,839 Z" fill="black"/>
<path d="M 195,821 L 195,822 Z" fill="black"/>
<path d="M 169,802 L 169,812 Z" fill="black"/>
<path d="M 798,796 Z" fill="black"/>
<path d="M 798,789 L 798,791 L 799,790 L 799,789 Z" fill="black"/>
<path d="M 796,786 L 796,789 Z" fill="black"/>
<path d="M 196,782 L 196,783 L 197,783 L 197,782 Z" fill="black"/>
<path d="M 179,775 Z" fill="black"/>
<path d="M 182,772 L 185,772 Z" fill="black"/>
<path d="M 796,760 L 797,760 Z" fill="black"/>
<path d="M 796,734 L 796,735 L 797,736 L 797,741 L 797,735 Z" fill="black"/>
<path d="M 799,730 L 799,732 L 800,732 L 800,731 Z" fill="black"/>
<path d="M 819,700 L 819,703 Z" fill="black"/>
<path d="M 819,617 L 819,620 Z" fill="black"/>
<path d="M 821,537 L 821,565 Z" fill="black"/>
<path d="M 179,517 L 179,526 Z" fill="black"/>
<path d="M 819,514 L 819,525 Z" fill="black"/>
<path d="M 819,466 L 819,487 Z" fill="black"/>
<path d="M 828,419 L 828,428 Z" fill="black"/>
<path d="M 821,419 L 821,444 Z" fill="black"/>
<path d="M 819,409 L 819,412 Z" fill="black"/>
<path d="M 828,403 Z" fill="black"/>
<path d="M 171,403 L 171,405 Z" fill="black"/>
<path d="M 819,402 L 819,403 Z" fill="black"/>
<path d="M 797,400 L 797,404 L 796,405 L 796,407 L 796,406 L 797,405 Z" fill="black"/>
<path d="M 821,387 L 821,401 Z" fill="black"/>
<path d="M 179,387 L 179,388 Z" fill="black"/>
<path d="M 179,384 L 179,385 Z" fill="black"/>
<path d="M 799,373 Z" fill="black"/>
<path d="M 819,370 L 819,381 Z" fill="black"/>
<path d="M 821,335 L 821,365 Z" fill="black"/>
<path d="M 819,328 L 819,333 Z" fill="black"/>
<path d="M 812,286 L 811,287 L 811,288 L 812,289 L 812,318 L 812,288 L 813,287 Z" fill="black"/>
<path d="M 831,236 Z" fill="black"/>
<path d="M 831,228 Z" fill="black"/>
<path d="M 826,226 Z" fill="black"/>
<path d="M 814,216 L 814,217 L 815,217 L 816,218 L 820,218 L 816,218 Z" fill="black"/>
<path d="M 819,214 L 818,215 L 819,216 L 820,215 Z" fill="black"/>
<path d="M 831,211 Z" fill="black"/>
<path d="M 812,211 L 812,213 L 813,213 L 814,212 L 814,211 Z" fill="black"/>
<path d="M 818,208 L 818,211 L 819,210 L 819,208 Z" fill="black"/>
<path d="M 815,208 L 815,209 Z" fill="black"/>
<path d="M 801,200 L 805,200 Z" fill="black"/>
<path d="M 821,196 L 821,201 Z" fill="black"/>
<path d="M 801,193 L 803,193 L 804,194 L 805,194 L 804,194 L 803,193 Z" fill="black"/>
<path d="M 176,192 Z" fill="black"/>
<path d="M 798,189 Z" fill="black"/>
<path d="M 799,172 Z" fill="black"/>
<path d="M 180,167 Z" fill="black"/>
<path d="M 179,161 L 179,162 L 180,162 L 180,161 Z" fill="black"/>
<path d="M 796,159 L 795,160 L 795,162 L 796,161 Z" fill="black"/>
<path d="M 795,156 L 796,156 Z" fill="black"/>
<path d="M 798,154 L 798,155 L 799,155 L 799,154 Z" fill="black"/>
<path d="M 180,121 L 180,122 L 181,122 L 181,121 Z" fill="black"/>
<path d="M 812,114 L 812,115 Z" fill="black"/>
<path d="M 179,112 Z" fill="black"/>
<path d="M 819,99 L 819,100 Z" fill="black"/>
<path d="M 167,95 L 167,98 L 166,99 L 166,103 L 167,104 L 167,111 L 166,112 L 166,541 L 167,542 L 167,559 L 166,560 L 166,575 L 167,576 L 167,736 L 168,737 L 168,740 L 167,741 L 167,782 L 168,783 L 168,786 L 168,758 L 169,757 L 169,674 L 168,673 L 168,591 L 169,590 L 169,576 L 168,575 L 168,446 L 167,445 L 167,256 L 168,255 L 168,247 L 167,246 Z" fill="black"/>
<path d="M 820,94 L 820,96 L 820,95 L 821,94 Z" fill="black"/>
<path d="M 209,94 L 209,95 Z" fill="black"/>
<path d="M 806,91 Z" fill="black"/>
<path d="M 803,87 Z" fill="black"/>
<path d="M 816,78 L 816,79 Z" fill="black"/>
<path d="M 183,65 L 183,66 Z" fill="black"/>
<path d="M 795,64 Z" fill="black"/>
<path d="M 219,64 Z" fill="black"/>
<path d="M 803,63 L 804,63 Z" fill="black"/>
<path d="M 179,63 Z" fill="black"/>
<path d="M 613,61 Z" fill="black"/>
<path d="M 584,61 L 585,61 Z" fill="black"/>
<path d="M 405,61 L 412,61 Z" fill="black"/>
<path d="M 784,60 L 784,61 L 785,61 L 785,60 Z" fill="black"/>
<path d="M 434,58 L 435,58 Z" fill="black"/>
<path d="M 784,56 L 785,57 L 785,56 Z" fill="black"/>
<path d="M 721,56 L 733,56 Z" fill="black"/>
<path d="M 676,56 L 683,56 Z" fill="black"/>
<path d="M 664,56 L 665,56 Z" fill="black"/>
<path d="M 628,56 L 635,56 Z" fill="black"/>
<path d="M 582,56 L 584,56 Z" fill="black"/>
<path d="M 524,56 L 525,56 Z" fill="black"/>
<path d="M 403,56 L 404,57 L 411,57 L 412,56 Z" fill="black"/>
<path d="M 371,56 L 371,57 L 373,57 L 374,56 L 383,56 Z" fill="black"/>
<path d="M 205,56 Z" fill="black"/>
<path d="M 811,51 L 812,51 Z" fill="black"/>
<path d="M 226,51 L 225,52 L 197,52 L 197,53 L 210,53 L 211,54 L 223,54 L 224,53 L 225,53 L 226,54 L 237,54 L 238,53 L 239,53 L 240,54 L 255,54 L 256,53 L 304,53 L 305,54 L 351,54 L 352,53 L 383,53 L 384,54 L 399,54 L 400,53 L 415,53 L 416,54 L 430,54 L 431,53 L 450,53 L 451,54 L 511,54 L 512,53 L 788,53 L 789,54 L 794,54 L 795,55 L 797,55 L 798,56 L 799,56 L 800,57 L 801,57 L 802,58 L 804,58 L 805,59 L 805,60 L 806,60 L 807,61 L 808,61 L 811,64 L 811,65 L 812,64 L 813,65 L 813,66 L 816,69 L 816,71 L 817,71 L 818,72 L 818,73 L 819,74 L 819,75 L 820,76 L 820,77 L 821,78 L 821,79 L 822,80 L 822,83 L 823,84 L 823,87 L 824,88 L 824,207 L 823,208 L 823,209 L 824,210 L 824,217 L 823,218 L 823,219 L 822,220 L 810,220 L 809,219 L 808,219 L 807,220 L 806,219 L 806,216 L 807,215 L 806,214 L 806,213 L 807,212 L 807,210 L 808,209 L 811,209 L 811,208 L 812,207 L 813,207 L 811,207 L 810,206 L 795,206 L 795,207 L 794,208 L 793,207 L 793,202 L 794,201 L 795,201 L 796,202 L 797,201 L 797,199 L 796,198 L 796,197 L 797,196 L 797,195 L 796,194 L 796,185 L 796,199 L 795,200 L 794,200 L 793,199 L 793,186 L 794,185 L 794,178 L 793,177 L 793,166 L 794,165 L 795,165 L 795,164 L 794,164 L 793,163 L 793,152 L 794,151 L 795,151 L 796,152 L 795,153 L 795,154 L 796,154 L 796,152 L 795,151 L 796,150 L 796,149 L 797,148 L 798,149 L 798,150 L 798,144 L 797,143 L 797,141 L 798,140 L 799,140 L 800,139 L 802,139 L 805,142 L 805,143 L 808,143 L 808,142 L 807,141 L 807,139 L 806,138 L 807,137 L 807,136 L 808,135 L 807,134 L 807,132 L 806,131 L 806,129 L 805,128 L 806,127 L 806,124 L 807,123 L 810,123 L 811,124 L 811,128 L 812,129 L 812,126 L 814,124 L 812,122 L 812,119 L 812,120 L 810,122 L 807,122 L 805,120 L 805,119 L 807,117 L 808,117 L 809,116 L 807,116 L 806,115 L 806,112 L 805,111 L 805,99 L 803,97 L 802,97 L 802,98 L 800,100 L 799,99 L 799,98 L 798,98 L 797,97 L 797,94 L 798,93 L 799,93 L 801,91 L 802,91 L 803,90 L 800,90 L 799,91 L 798,91 L 798,92 L 797,93 L 796,93 L 795,94 L 795,95 L 793,97 L 791,95 L 791,94 L 792,93 L 793,93 L 794,92 L 794,91 L 793,90 L 791,92 L 790,92 L 789,93 L 788,93 L 787,92 L 787,90 L 788,89 L 789,89 L 790,88 L 791,88 L 794,85 L 795,86 L 795,87 L 797,87 L 797,86 L 794,83 L 796,81 L 798,81 L 799,82 L 800,82 L 802,84 L 804,84 L 805,83 L 805,82 L 806,81 L 806,78 L 807,77 L 807,73 L 806,72 L 806,71 L 805,70 L 800,70 L 799,71 L 794,71 L 793,72 L 792,72 L 791,71 L 791,70 L 792,69 L 790,67 L 789,67 L 788,68 L 776,68 L 775,67 L 773,67 L 772,66 L 771,66 L 769,64 L 768,64 L 767,65 L 746,65 L 745,64 L 744,65 L 704,65 L 703,66 L 701,66 L 700,65 L 699,66 L 698,66 L 697,67 L 696,67 L 694,65 L 693,65 L 690,68 L 689,68 L 688,67 L 688,66 L 687,65 L 686,65 L 683,68 L 664,68 L 663,67 L 661,67 L 660,68 L 644,68 L 643,67 L 641,67 L 640,68 L 637,68 L 636,67 L 635,68 L 628,68 L 627,67 L 619,67 L 618,68 L 616,68 L 615,67 L 610,67 L 609,66 L 601,66 L 600,67 L 576,67 L 575,68 L 574,68 L 573,67 L 572,67 L 571,68 L 562,68 L 561,67 L 531,67 L 530,68 L 528,68 L 527,67 L 514,67 L 513,68 L 506,68 L 505,67 L 499,67 L 498,68 L 497,67 L 477,67 L 476,68 L 468,68 L 467,67 L 446,67 L 445,68 L 430,68 L 429,67 L 374,67 L 373,66 L 370,66 L 369,67 L 326,67 L 325,66 L 324,66 L 323,67 L 321,67 L 320,68 L 319,68 L 318,67 L 317,68 L 314,68 L 313,67 L 310,67 L 309,66 L 308,66 L 307,65 L 306,65 L 305,64 L 301,64 L 300,65 L 276,65 L 275,66 L 274,66 L 273,65 L 260,65 L 259,64 L 241,64 L 240,65 L 238,65 L 237,64 L 236,64 L 235,63 L 234,64 L 232,64 L 231,63 L 230,63 L 229,64 L 228,64 L 226,66 L 220,66 L 219,67 L 214,67 L 213,66 L 205,66 L 204,67 L 203,67 L 203,68 L 202,69 L 202,74 L 203,75 L 203,84 L 204,85 L 204,86 L 205,86 L 205,85 L 206,84 L 208,86 L 208,88 L 212,92 L 212,93 L 213,94 L 211,96 L 211,97 L 210,98 L 208,98 L 205,95 L 205,94 L 204,93 L 204,92 L 203,93 L 203,95 L 202,96 L 202,103 L 201,104 L 200,103 L 200,99 L 199,98 L 199,97 L 200,96 L 200,94 L 199,93 L 199,92 L 197,92 L 196,93 L 196,94 L 195,95 L 194,95 L 193,94 L 193,89 L 194,88 L 195,88 L 194,88 L 193,87 L 190,87 L 189,86 L 190,85 L 191,85 L 188,85 L 187,84 L 188,83 L 191,83 L 193,81 L 196,81 L 197,82 L 197,83 L 198,83 L 199,82 L 199,76 L 198,75 L 198,74 L 199,73 L 199,71 L 198,70 L 197,70 L 196,69 L 195,69 L 194,70 L 192,70 L 191,69 L 190,69 L 189,68 L 188,69 L 186,69 L 185,70 L 184,70 L 184,71 L 185,71 L 186,72 L 186,73 L 185,74 L 185,75 L 186,76 L 186,78 L 185,79 L 184,79 L 184,80 L 185,80 L 186,81 L 185,82 L 187,84 L 186,85 L 186,86 L 185,87 L 185,93 L 184,94 L 184,95 L 185,96 L 185,108 L 186,109 L 186,113 L 184,115 L 185,116 L 185,117 L 186,118 L 186,123 L 184,125 L 184,168 L 185,169 L 184,170 L 184,202 L 185,203 L 186,203 L 187,202 L 188,203 L 188,207 L 187,208 L 186,208 L 186,257 L 185,258 L 185,260 L 186,261 L 186,265 L 185,266 L 184,266 L 185,266 L 186,267 L 186,335 L 187,336 L 187,347 L 186,348 L 186,367 L 187,368 L 187,384 L 186,385 L 185,384 L 185,387 L 186,386 L 187,387 L 187,396 L 186,397 L 186,398 L 187,399 L 187,483 L 186,484 L 185,484 L 186,484 L 187,485 L 187,510 L 188,511 L 188,519 L 187,520 L 187,527 L 188,528 L 188,563 L 187,564 L 187,579 L 188,580 L 188,696 L 187,697 L 187,700 L 188,701 L 188,767 L 187,768 L 186,768 L 187,768 L 188,769 L 188,770 L 189,771 L 191,771 L 192,772 L 191,773 L 188,773 L 188,775 L 186,777 L 183,777 L 182,778 L 180,778 L 180,779 L 181,780 L 187,780 L 188,779 L 191,779 L 192,780 L 192,781 L 191,782 L 189,782 L 188,783 L 188,784 L 187,785 L 187,786 L 186,787 L 186,789 L 187,790 L 187,797 L 192,797 L 193,798 L 193,815 L 193,798 L 194,797 L 194,791 L 197,788 L 196,787 L 196,786 L 194,784 L 192,784 L 191,783 L 191,782 L 192,781 L 193,781 L 193,780 L 194,779 L 198,779 L 200,781 L 200,840 L 199,841 L 198,840 L 198,832 L 197,831 L 197,828 L 197,831 L 196,832 L 195,831 L 195,825 L 195,826 L 192,829 L 192,830 L 190,832 L 189,831 L 189,801 L 188,800 L 187,801 L 187,832 L 186,833 L 186,834 L 187,835 L 187,838 L 186,839 L 186,841 L 185,842 L 185,843 L 186,844 L 186,845 L 188,847 L 189,846 L 190,846 L 191,845 L 192,845 L 193,844 L 194,845 L 196,845 L 197,846 L 197,847 L 198,847 L 199,846 L 200,847 L 200,858 L 198,860 L 200,862 L 201,862 L 202,861 L 202,855 L 203,854 L 204,855 L 206,853 L 206,852 L 208,850 L 208,849 L 211,846 L 211,844 L 212,843 L 213,843 L 214,844 L 214,846 L 212,848 L 212,849 L 208,853 L 208,855 L 206,857 L 206,860 L 207,861 L 207,856 L 208,855 L 209,856 L 209,860 L 210,861 L 209,862 L 209,863 L 210,864 L 210,867 L 212,869 L 212,870 L 211,871 L 210,870 L 209,870 L 209,871 L 210,872 L 211,871 L 212,871 L 213,872 L 213,873 L 214,874 L 214,875 L 215,876 L 215,877 L 216,877 L 217,878 L 217,879 L 218,878 L 219,879 L 221,879 L 222,880 L 224,880 L 225,881 L 225,882 L 224,883 L 223,883 L 222,882 L 221,882 L 222,883 L 223,883 L 224,884 L 227,884 L 226,884 L 225,883 L 225,882 L 226,881 L 227,881 L 228,882 L 230,882 L 231,881 L 234,881 L 235,880 L 237,880 L 238,879 L 240,881 L 239,882 L 238,882 L 237,883 L 234,883 L 237,883 L 238,882 L 239,882 L 240,881 L 241,882 L 242,882 L 243,883 L 243,884 L 244,883 L 247,883 L 248,884 L 251,884 L 252,883 L 255,883 L 256,884 L 316,884 L 317,885 L 317,887 L 319,887 L 320,888 L 320,889 L 319,890 L 306,890 L 304,892 L 288,892 L 287,893 L 286,893 L 285,894 L 283,894 L 282,893 L 280,893 L 279,894 L 272,894 L 271,893 L 270,893 L 269,894 L 259,894 L 258,893 L 257,893 L 256,892 L 256,893 L 255,894 L 253,894 L 253,895 L 256,895 L 257,894 L 259,894 L 260,895 L 281,895 L 282,896 L 283,896 L 284,895 L 285,896 L 287,896 L 289,898 L 288,899 L 287,899 L 286,898 L 285,899 L 262,899 L 261,898 L 261,897 L 260,897 L 259,898 L 258,898 L 257,899 L 240,899 L 239,900 L 227,900 L 225,898 L 224,899 L 224,903 L 223,904 L 223,906 L 222,907 L 221,907 L 220,906 L 219,906 L 218,905 L 216,907 L 214,907 L 213,906 L 212,907 L 212,911 L 211,912 L 209,912 L 208,911 L 209,910 L 209,907 L 208,907 L 208,909 L 206,911 L 205,911 L 204,912 L 203,912 L 202,913 L 203,914 L 215,914 L 216,913 L 219,913 L 219,911 L 221,909 L 223,909 L 224,910 L 224,911 L 225,911 L 225,908 L 224,907 L 225,906 L 225,905 L 226,904 L 225,903 L 225,902 L 226,901 L 229,901 L 230,902 L 230,903 L 231,902 L 245,902 L 246,903 L 247,903 L 248,904 L 254,904 L 249,904 L 248,903 L 249,902 L 255,902 L 256,903 L 257,903 L 258,902 L 282,902 L 283,903 L 284,902 L 285,903 L 287,903 L 288,902 L 292,902 L 293,903 L 298,903 L 299,902 L 303,902 L 304,903 L 305,903 L 306,904 L 306,906 L 305,907 L 304,907 L 304,908 L 305,908 L 306,907 L 307,907 L 309,909 L 309,910 L 308,911 L 306,911 L 305,912 L 305,913 L 306,913 L 307,914 L 308,914 L 309,913 L 310,913 L 311,912 L 313,912 L 313,911 L 312,910 L 312,908 L 311,907 L 311,906 L 310,906 L 308,908 L 307,907 L 307,905 L 308,904 L 308,900 L 307,899 L 305,899 L 304,898 L 304,896 L 305,895 L 306,895 L 310,899 L 310,900 L 311,900 L 312,899 L 313,900 L 313,904 L 314,905 L 314,907 L 316,909 L 316,911 L 317,911 L 317,909 L 318,908 L 319,908 L 320,909 L 320,913 L 330,913 L 331,914 L 337,914 L 338,913 L 355,913 L 356,914 L 358,914 L 359,913 L 365,913 L 366,914 L 430,914 L 431,913 L 464,913 L 465,914 L 538,914 L 539,915 L 545,915 L 546,914 L 562,914 L 563,915 L 569,915 L 570,914 L 571,914 L 572,915 L 589,915 L 590,914 L 605,914 L 606,915 L 615,915 L 616,914 L 637,914 L 638,915 L 643,915 L 644,914 L 651,914 L 652,915 L 655,915 L 656,914 L 657,914 L 658,915 L 659,915 L 660,914 L 661,914 L 662,915 L 676,915 L 677,914 L 684,914 L 686,916 L 686,915 L 685,914 L 686,913 L 690,913 L 691,914 L 694,914 L 696,916 L 697,916 L 698,915 L 700,915 L 701,914 L 703,914 L 704,915 L 737,915 L 737,914 L 738,913 L 744,913 L 745,914 L 751,914 L 752,913 L 755,913 L 756,914 L 759,914 L 760,915 L 766,915 L 768,917 L 769,917 L 769,915 L 767,915 L 766,914 L 767,913 L 767,911 L 768,910 L 771,910 L 771,908 L 772,907 L 772,903 L 771,902 L 771,901 L 770,901 L 769,900 L 768,900 L 767,899 L 767,898 L 766,899 L 758,899 L 757,898 L 758,897 L 759,897 L 757,897 L 756,896 L 756,894 L 756,895 L 755,896 L 748,896 L 747,895 L 739,895 L 738,896 L 736,896 L 735,895 L 719,895 L 718,894 L 712,894 L 711,895 L 691,895 L 690,894 L 678,894 L 677,893 L 671,893 L 670,894 L 660,894 L 659,893 L 638,893 L 637,894 L 624,894 L 623,893 L 604,893 L 603,892 L 602,892 L 601,893 L 597,893 L 596,892 L 595,893 L 562,893 L 561,892 L 560,892 L 560,893 L 559,894 L 557,894 L 556,893 L 555,893 L 554,894 L 543,894 L 542,893 L 537,893 L 536,894 L 494,894 L 493,893 L 476,893 L 475,892 L 474,892 L 473,893 L 470,893 L 469,892 L 468,892 L 467,891 L 466,891 L 465,892 L 466,893 L 464,895 L 463,894 L 463,893 L 402,893 L 401,892 L 400,892 L 399,893 L 398,893 L 397,892 L 384,892 L 383,893 L 382,893 L 381,892 L 370,892 L 369,891 L 357,891 L 356,892 L 329,892 L 328,891 L 327,891 L 326,892 L 325,892 L 324,893 L 320,893 L 319,892 L 319,890 L 320,889 L 321,889 L 321,888 L 320,888 L 319,887 L 319,885 L 320,884 L 323,884 L 324,885 L 328,885 L 329,884 L 335,884 L 336,885 L 339,885 L 340,884 L 341,885 L 342,885 L 343,884 L 344,885 L 349,885 L 350,884 L 356,884 L 358,886 L 361,886 L 362,885 L 423,885 L 424,886 L 440,886 L 441,885 L 458,885 L 459,886 L 466,886 L 467,885 L 473,885 L 474,886 L 478,886 L 479,885 L 482,885 L 483,886 L 487,886 L 488,885 L 495,885 L 496,886 L 527,886 L 528,885 L 538,885 L 539,886 L 560,886 L 561,885 L 571,885 L 572,886 L 575,886 L 576,885 L 588,885 L 589,886 L 687,886 L 688,887 L 689,887 L 690,886 L 698,886 L 699,887 L 735,887 L 737,889 L 739,889 L 740,888 L 736,888 L 735,887 L 736,886 L 742,886 L 743,885 L 744,886 L 748,886 L 749,885 L 750,885 L 751,886 L 751,888 L 753,886 L 754,886 L 754,885 L 755,884 L 756,884 L 757,883 L 760,886 L 759,885 L 760,884 L 769,884 L 770,883 L 772,883 L 773,882 L 775,882 L 776,883 L 775,882 L 777,880 L 777,879 L 779,877 L 780,877 L 781,876 L 782,877 L 782,878 L 781,879 L 782,878 L 782,877 L 781,876 L 781,875 L 782,874 L 782,872 L 784,870 L 785,871 L 785,872 L 784,873 L 784,875 L 784,873 L 785,872 L 785,871 L 786,870 L 785,870 L 784,869 L 784,866 L 785,865 L 786,866 L 786,867 L 787,867 L 787,864 L 786,864 L 785,863 L 785,858 L 786,857 L 786,856 L 784,854 L 783,854 L 781,852 L 782,851 L 784,851 L 784,850 L 783,849 L 783,848 L 784,847 L 784,840 L 786,838 L 786,837 L 785,836 L 785,835 L 786,834 L 787,834 L 788,835 L 788,836 L 789,836 L 791,838 L 791,839 L 790,840 L 790,841 L 791,842 L 791,846 L 790,847 L 789,847 L 791,849 L 791,851 L 790,852 L 791,853 L 791,862 L 792,863 L 793,863 L 794,862 L 794,856 L 793,855 L 794,854 L 794,853 L 793,852 L 793,851 L 795,849 L 794,848 L 794,845 L 795,844 L 795,843 L 794,842 L 794,840 L 797,837 L 798,838 L 799,838 L 799,833 L 798,832 L 798,834 L 797,835 L 794,832 L 794,831 L 795,830 L 794,829 L 794,828 L 793,827 L 793,815 L 794,814 L 794,808 L 793,807 L 793,804 L 794,803 L 794,801 L 793,800 L 793,796 L 794,795 L 794,793 L 793,792 L 793,784 L 794,783 L 794,780 L 793,779 L 793,778 L 795,776 L 796,776 L 798,778 L 798,780 L 797,781 L 798,782 L 798,783 L 799,783 L 799,782 L 800,781 L 803,781 L 804,782 L 811,782 L 812,781 L 812,779 L 809,779 L 808,778 L 804,778 L 803,779 L 800,779 L 799,780 L 798,779 L 798,776 L 797,775 L 796,775 L 795,776 L 793,774 L 793,773 L 796,770 L 797,771 L 798,770 L 799,771 L 800,771 L 801,770 L 803,770 L 804,769 L 805,769 L 805,768 L 807,766 L 806,765 L 805,765 L 804,764 L 800,764 L 799,765 L 796,765 L 795,764 L 796,763 L 797,763 L 797,762 L 795,764 L 794,764 L 792,762 L 792,761 L 793,760 L 793,759 L 794,758 L 795,758 L 795,757 L 794,757 L 793,756 L 793,755 L 794,754 L 795,754 L 797,756 L 797,757 L 797,752 L 798,751 L 799,751 L 800,752 L 800,753 L 799,754 L 799,756 L 800,756 L 801,755 L 802,756 L 802,758 L 803,759 L 804,759 L 804,758 L 803,757 L 803,754 L 805,752 L 804,751 L 804,748 L 803,747 L 803,743 L 801,743 L 801,746 L 800,747 L 799,747 L 797,745 L 797,744 L 796,745 L 794,743 L 794,741 L 793,740 L 793,732 L 794,731 L 794,730 L 795,729 L 795,722 L 794,721 L 794,720 L 793,719 L 793,714 L 794,713 L 795,713 L 796,714 L 796,718 L 796,708 L 797,707 L 799,707 L 800,708 L 800,715 L 801,716 L 801,719 L 802,720 L 802,727 L 803,728 L 803,733 L 804,733 L 804,688 L 803,687 L 803,672 L 804,671 L 804,612 L 805,611 L 805,610 L 804,609 L 804,488 L 803,487 L 803,482 L 804,481 L 804,477 L 805,476 L 805,467 L 804,466 L 804,463 L 803,462 L 803,461 L 802,462 L 802,463 L 801,464 L 801,468 L 800,469 L 798,467 L 798,465 L 797,464 L 797,461 L 796,461 L 796,462 L 795,463 L 794,462 L 794,459 L 793,459 L 793,460 L 792,461 L 791,460 L 791,448 L 792,447 L 793,448 L 793,450 L 794,451 L 793,452 L 793,453 L 794,454 L 794,455 L 794,449 L 793,448 L 793,446 L 795,444 L 796,444 L 797,445 L 797,447 L 799,447 L 799,446 L 796,443 L 796,432 L 795,431 L 795,426 L 796,425 L 796,424 L 797,423 L 797,417 L 796,416 L 796,420 L 795,421 L 795,424 L 794,425 L 794,432 L 793,433 L 793,435 L 792,436 L 791,435 L 791,425 L 792,424 L 792,422 L 793,421 L 793,414 L 794,413 L 795,413 L 795,410 L 794,409 L 794,376 L 793,375 L 793,372 L 794,371 L 794,349 L 796,347 L 797,348 L 797,357 L 797,354 L 798,353 L 799,353 L 799,352 L 800,351 L 801,351 L 802,352 L 802,383 L 801,384 L 800,383 L 800,382 L 799,381 L 799,380 L 798,381 L 799,382 L 799,392 L 798,393 L 798,396 L 799,397 L 799,401 L 800,402 L 799,403 L 799,408 L 800,408 L 801,407 L 802,408 L 802,413 L 801,414 L 801,415 L 800,416 L 801,417 L 801,424 L 800,425 L 799,425 L 799,431 L 800,432 L 800,435 L 801,436 L 801,448 L 802,449 L 802,451 L 801,452 L 801,453 L 802,454 L 802,457 L 803,457 L 803,454 L 804,453 L 804,348 L 805,347 L 805,320 L 806,319 L 806,282 L 807,281 L 807,280 L 806,279 L 806,272 L 805,271 L 805,269 L 806,268 L 806,266 L 807,265 L 808,265 L 807,265 L 806,264 L 806,263 L 805,262 L 806,261 L 806,254 L 807,253 L 808,253 L 808,252 L 809,251 L 810,251 L 811,252 L 811,254 L 810,255 L 810,257 L 811,258 L 811,260 L 810,261 L 810,264 L 812,266 L 811,267 L 811,268 L 813,268 L 813,267 L 811,265 L 811,260 L 815,256 L 816,257 L 816,259 L 814,261 L 814,263 L 815,263 L 815,260 L 817,258 L 817,256 L 818,255 L 819,256 L 819,265 L 819,254 L 820,253 L 821,254 L 821,259 L 821,244 L 822,243 L 823,243 L 824,244 L 824,719 L 825,720 L 825,732 L 824,733 L 824,781 L 825,782 L 825,902 L 824,903 L 824,910 L 824,908 L 825,907 L 825,898 L 826,897 L 826,896 L 825,895 L 825,880 L 826,879 L 826,848 L 827,847 L 827,840 L 826,839 L 826,733 L 827,732 L 827,728 L 826,727 L 826,625 L 825,624 L 825,242 L 826,241 L 826,239 L 827,238 L 826,237 L 826,236 L 827,235 L 826,234 L 826,233 L 828,231 L 828,230 L 827,231 L 825,231 L 824,230 L 824,229 L 825,228 L 824,227 L 824,225 L 825,224 L 826,224 L 825,223 L 825,222 L 826,221 L 825,220 L 826,219 L 826,218 L 825,217 L 825,216 L 826,215 L 826,208 L 825,207 L 825,84 L 824,83 L 824,78 L 822,76 L 822,74 L 821,73 L 821,72 L 819,70 L 819,69 L 815,65 L 815,63 L 814,63 L 811,60 L 810,60 L 807,57 L 806,57 L 805,56 L 802,56 L 801,55 L 800,55 L 799,54 L 798,54 L 797,53 L 794,53 L 793,52 L 466,52 L 465,51 L 448,51 L 447,52 L 432,52 L 431,51 L 413,51 L 412,52 L 403,52 L 402,51 L 388,51 L 387,52 L 356,52 L 355,51 L 307,51 L 306,52 L 300,52 L 299,51 L 275,51 L 274,52 L 256,52 L 255,51 L 238,51 L 237,52 L 235,52 L 234,51 Z" fill="black"/>
</svg>