<svg xmlns="http://www.w3.org/2000/svg" width="1536" height="2048" viewBox="0 0 1536 2048">
<path d="M 0,0 L 0,174 L 2,176 L 3,176 L 4,177 L 5,177 L 8,180 L 8,181 L 9,182 L 9,183 L 10,184 L 10,186 L 11,187 L 11,188 L 12,189 L 12,192 L 13,193 L 13,194 L 14,195 L 14,197 L 15,198 L 15,201 L 16,202 L 16,204 L 17,205 L 17,208 L 18,209 L 17,210 L 18,211 L 18,214 L 17,215 L 17,216 L 15,218 L 15,219 L 14,220 L 10,220 L 9,221 L 0,221 L 0,2047 L 1535,2047 L 1535,0 L 1204,0 L 1203,1 L 1202,0 L 1112,0 L 1115,3 L 1116,3 L 1117,4 L 1120,4 L 1121,5 L 1124,5 L 1125,6 L 1127,6 L 1128,7 L 1134,7 L 1135,8 L 1139,8 L 1140,9 L 1141,9 L 1142,10 L 1145,10 L 1146,11 L 1147,10 L 1148,11 L 1151,11 L 1152,12 L 1155,12 L 1156,13 L 1157,13 L 1158,14 L 1160,14 L 1161,15 L 1164,15 L 1165,16 L 1167,16 L 1168,17 L 1169,17 L 1170,18 L 1175,18 L 1176,19 L 1178,19 L 1179,20 L 1182,20 L 1183,21 L 1185,21 L 1186,22 L 1187,21 L 1188,22 L 1192,22 L 1193,23 L 1195,23 L 1196,24 L 1199,24 L 1200,25 L 1201,24 L 1202,25 L 1204,25 L 1205,26 L 1205,27 L 1206,26 L 1208,28 L 1209,28 L 1213,32 L 1213,33 L 1215,35 L 1215,36 L 1216,37 L 1216,40 L 1217,41 L 1217,42 L 1216,43 L 1216,48 L 1215,49 L 1215,57 L 1214,58 L 1215,59 L 1214,60 L 1214,66 L 1213,67 L 1213,68 L 1212,69 L 1212,70 L 1213,71 L 1213,72 L 1212,73 L 1212,76 L 1211,77 L 1211,79 L 1212,80 L 1211,81 L 1211,89 L 1210,90 L 1210,95 L 1209,96 L 1209,103 L 1208,104 L 1208,112 L 1207,113 L 1207,120 L 1206,121 L 1206,127 L 1205,128 L 1205,129 L 1206,130 L 1205,131 L 1205,137 L 1204,138 L 1204,147 L 1203,148 L 1203,152 L 1202,153 L 1202,161 L 1201,162 L 1201,163 L 1200,164 L 1200,166 L 1197,169 L 1196,169 L 1194,171 L 1193,171 L 1192,172 L 1191,172 L 1190,173 L 1182,173 L 1181,172 L 1180,172 L 1179,171 L 1175,171 L 1174,170 L 1173,170 L 1172,169 L 1170,169 L 1169,170 L 1168,170 L 1167,169 L 1166,169 L 1165,168 L 1164,169 L 1163,168 L 1160,168 L 1159,167 L 1157,167 L 1156,166 L 1151,166 L 1150,165 L 1149,165 L 1148,164 L 1145,164 L 1144,163 L 1140,163 L 1139,162 L 1138,163 L 1137,162 L 1135,162 L 1134,161 L 1130,161 L 1129,160 L 1126,160 L 1125,159 L 1120,159 L 1119,158 L 1116,158 L 1115,157 L 1113,157 L 1112,156 L 1106,156 L 1105,155 L 1099,155 L 1097,153 L 1094,153 L 1093,152 L 1091,152 L 1090,151 L 1089,151 L 1088,152 L 1087,151 L 1083,151 L 1082,150 L 1080,150 L 1079,149 L 1075,149 L 1074,148 L 1071,148 L 1070,147 L 1066,147 L 1065,146 L 1061,146 L 1060,145 L 1057,145 L 1056,144 L 1053,144 L 1052,143 L 1049,143 L 1048,142 L 1046,142 L 1045,141 L 1042,141 L 1041,140 L 1040,141 L 1039,140 L 1035,140 L 1034,139 L 1030,139 L 1029,138 L 1025,138 L 1024,137 L 1021,137 L 1020,136 L 1017,136 L 1016,135 L 1014,135 L 1013,134 L 1008,134 L 1007,133 L 1001,133 L 1000,132 L 998,132 L 997,131 L 996,131 L 995,130 L 990,130 L 989,129 L 987,129 L 986,128 L 982,128 L 981,127 L 977,127 L 976,126 L 972,126 L 971,125 L 967,125 L 966,124 L 964,124 L 963,123 L 958,123 L 957,122 L 953,122 L 952,121 L 950,121 L 949,120 L 946,120 L 945,119 L 942,119 L 941,118 L 938,118 L 937,117 L 936,117 L 935,116 L 935,115 L 933,115 L 932,114 L 929,114 L 928,113 L 925,113 L 924,112 L 920,112 L 919,111 L 904,111 L 903,110 L 901,110 L 899,108 L 897,108 L 895,106 L 893,106 L 892,105 L 891,105 L 890,104 L 889,104 L 887,102 L 884,102 L 882,100 L 881,100 L 880,99 L 878,99 L 876,97 L 876,96 L 874,96 L 873,95 L 873,93 L 871,91 L 870,91 L 869,90 L 870,89 L 870,88 L 869,87 L 869,84 L 868,83 L 868,80 L 867,79 L 867,73 L 866,72 L 866,55 L 867,54 L 867,50 L 868,49 L 867,48 L 867,46 L 868,45 L 868,43 L 867,42 L 868,41 L 868,33 L 869,32 L 868,31 L 868,30 L 869,29 L 869,18 L 870,17 L 870,12 L 871,11 L 870,10 L 870,8 L 871,7 L 871,0 L 796,0 L 796,3 L 795,4 L 795,6 L 796,7 L 796,10 L 795,11 L 795,29 L 794,30 L 794,33 L 795,34 L 795,37 L 794,38 L 794,43 L 793,44 L 793,45 L 794,46 L 794,48 L 788,54 L 787,54 L 786,55 L 785,55 L 783,57 L 780,57 L 779,58 L 778,57 L 773,57 L 772,56 L 769,56 L 768,55 L 765,55 L 764,54 L 758,54 L 757,53 L 754,53 L 753,52 L 748,52 L 747,51 L 746,51 L 745,50 L 741,50 L 740,49 L 735,49 L 726,40 L 727,39 L 726,39 L 725,38 L 725,37 L 724,36 L 724,33 L 722,31 L 722,29 L 723,28 L 721,26 L 723,24 L 722,23 L 722,21 L 721,21 L 719,19 L 718,19 L 717,18 L 717,16 L 716,15 L 716,14 L 715,14 L 711,10 L 711,9 L 710,9 L 709,8 L 708,9 L 706,7 L 705,7 L 704,6 L 704,4 L 701,4 L 700,3 L 700,1 L 699,0 L 613,0 L 613,1 L 612,2 L 611,2 L 610,1 L 610,0 L 310,0 L 312,2 L 313,2 L 314,3 L 315,3 L 316,4 L 320,4 L 321,5 L 326,5 L 327,6 L 330,6 L 331,7 L 332,7 L 336,11 L 337,11 L 338,12 L 337,13 L 338,13 L 340,15 L 339,16 L 339,17 L 338,18 L 337,18 L 336,17 L 336,19 L 335,20 L 333,20 L 332,19 L 323,19 L 322,18 L 317,18 L 315,16 L 313,16 L 312,17 L 310,15 L 309,16 L 307,16 L 306,15 L 300,15 L 299,14 L 297,14 L 296,13 L 292,13 L 291,12 L 289,12 L 288,11 L 286,11 L 285,10 L 283,10 L 282,9 L 279,9 L 278,8 L 275,8 L 274,7 L 273,7 L 272,6 L 270,6 L 269,5 L 269,4 L 268,3 L 267,3 L 266,2 L 266,1 L 265,0 Z" fill="black"/>
</svg>